<svg width="167" height="184" viewBox="0 0 167 184" fill="none" xmlns="http://www.w3.org/2000/svg">
<g filter="url(#filter0_i_1_44)">
<path d="M14 53.6L91.2 83.8L98.6 94.8C98.6 94.8 100.333 95.1333 103.8 95.8C107.267 96.6 111.6 97.6667 116.8 99C122 100.467 127.2 102 132.4 103.6L150.6 109.6C151.8 110 152.6 110.533 153 111.2C153.4 111.867 153.667 113.667 153.8 116.6C153.933 119.533 154 124.467 154 131.4L76.6 103.8L74.4 95.4C74.4 95.4 72.5333 94.8667 68.8 93.8C65.0667 92.8667 60.4 91.5333 54.8 89.8C49.3333 88.2 43.8667 86.3333 38.4 84.2L16.6 75.4C14.8667 74.4667 14 73.0667 14 71.2V53.6ZM14 109.4L38.4 100.8C43.8667 98.9333 49.3333 97.1333 54.8 95.4C60.4 93.8 65.0667 92.4667 68.8 91.4C72.5333 90.4667 74.4 90 74.4 90L81.6 83.2L150.6 59C151.8 58.6 152.6 58.7333 153 59.4C153.4 60.2 153.667 62.4 153.8 66C153.933 69.6 154 75.3333 154 83.2L132.4 89.8C127.067 91.4 121.8 92.8667 116.6 94.2C111.533 95.5333 107.267 96.5333 103.8 97.2C100.333 98 98.6 98.4 98.6 98.4L94.6 105.8L17 134C16.2 134.533 15.4667 134.667 14.8 134.4C14.2667 134.133 14 133.267 14 131.8V109.4Z" fill="url(#paint0_linear_1_44)"/>
<path d="M86 73.5L152 51.5L54.4891 15.11C34.8838 7.7936 14 22.2907 14 43.2166V46.5L86 73.5Z" fill="url(#paint1_linear_1_44)"/>
<path d="M89 116L15 143L115.513 172.648C134.732 178.317 154 163.911 154 143.873V139.5L89 116Z" fill="url(#paint2_linear_1_44)"/>
</g>
<defs>
<filter id="filter0_i_1_44" x="14" y="13.1897" width="140" height="160.703" filterUnits="userSpaceOnUse" color-interpolation-filters="sRGB">
<feFlood flood-opacity="0" result="BackgroundImageFix"/>
<feBlend mode="normal" in="SourceGraphic" in2="BackgroundImageFix" result="shape"/>
<feColorMatrix in="SourceAlpha" type="matrix" values="0 0 0 0 0 0 0 0 0 0 0 0 0 0 0 0 0 0 127 0" result="hardAlpha"/>
<feOffset/>
<feGaussianBlur stdDeviation="1"/>
<feComposite in2="hardAlpha" operator="arithmetic" k2="-1" k3="1"/>
<feColorMatrix type="matrix" values="0 0 0 0 0.805833 0 0 0 0 0.87185 0 0 0 0 1 0 0 0 0.7 0"/>
<feBlend mode="normal" in2="shape" result="effect1_innerShadow_1_44"/>
</filter>
<linearGradient id="paint0_linear_1_44" x1="167" y1="94" x2="0" y2="94" gradientUnits="userSpaceOnUse">
<stop stop-color="#435EBE"/>
<stop offset="1" stop-color="#47DFD6" stop-opacity="0.9"/>
</linearGradient>
<linearGradient id="paint1_linear_1_44" x1="136" y1="39" x2="15.1111" y2="39" gradientUnits="userSpaceOnUse">
<stop stop-color="#435EBE"/>
<stop offset="1" stop-color="#47DFD6" stop-opacity="0.9"/>
</linearGradient>
<linearGradient id="paint2_linear_1_44" x1="39" y1="150.5" x2="159.889" y2="150.5" gradientUnits="userSpaceOnUse">
<stop stop-color="#435EBE"/>
<stop offset="1" stop-color="#47DFD6" stop-opacity="0.9"/>
</linearGradient>
</defs>
</svg>
